
<svg width="40px" height="40px" viewBox="0 0 40 40" version="1.1" xmlns="http://www.w3.org/2000/svg" xmlns:xlink="http://www.w3.org/1999/xlink">
    <g id="Welcome" stroke="none" stroke-width="1" fill="none" fill-rule="evenodd">
        <g id="Desktop-2" transform="translate(-580.000000, -888.000000)" fill="#FFFFFF" fill-rule="nonzero">
            <g id="Btn-Abort" transform="translate(550.000000, 868.000000)">
                <g id="close" transform="translate(30.000000, 20.000000)">
                    <path d="M23.5233333,19.9883333 L39.2433333,4.26833333 C40.22,3.2925 40.22,1.70916667 39.2433333,0.733333333 C38.2666667,-0.243333333 36.685,-0.243333333 35.7083333,0.733333333 L19.9883333,16.4533333 L4.2675,0.733333333 C3.29083333,-0.243333333 1.70916667,-0.243333333 0.7325,0.733333333 C-0.244166667,1.70916667 -0.244166667,3.2925 0.7325,4.26833333 L16.4533333,19.9883333 L0.7325,35.7083333 C-0.244166667,36.6841667 -0.244166667,38.2675 0.7325,39.2433333 C1.22083333,39.7308333 1.86083333,39.975 2.5,39.975 C3.13916667,39.975 3.77916667,39.7308333 4.2675,39.2425 L19.9883333,23.5225 L35.7083333,39.2425 C36.1966667,39.7308333 36.8366667,39.975 37.4758333,39.975 C38.115,39.975 38.755,39.7308333 39.2433333,39.2425 C40.22,38.2666667 40.22,36.6833333 39.2433333,35.7075 L23.5233333,19.9883333 Z" id="Path"></path>
                </g>
            </g>
        </g>
    </g>
</svg>