
<svg width="70px" height="53px" viewBox="0 0 70 53" version="1.1" xmlns="http://www.w3.org/2000/svg" xmlns:xlink="http://www.w3.org/1999/xlink">
    <g id="Welcome" stroke="none" stroke-width="1" fill="none" fill-rule="evenodd">
        <g id="Desktop-1" transform="translate(-30.000000, -24.000000)" fill="#FFFFFF" fill-rule="nonzero">
            <g id="Header">
                <g id="code" transform="translate(30.000000, 24.000000)">
                    <path d="M43.6010325,0.737877629 L41.2312046,0.0882026769 C40.9261759,-0.0135181644 40.6256979,0.0184703633 40.3335182,0.183900574 C40.0404015,0.349464627 39.8424474,0.598011472 39.7407266,0.929139579 L25.4872275,50.2621415 C25.3855067,50.5934034 25.4173614,50.9057935 25.5829254,51.1983748 C25.7484895,51.4914914 25.996501,51.6889101 26.3281644,51.790631 L28.6973231,52.4405736 C29.003021,52.5430975 29.3024283,52.5109751 29.5954111,52.3452772 C29.8885277,52.1789101 30.0860803,51.9311663 30.1876673,51.6005736 L44.4415679,2.26676864 C44.5431549,1.93564054 44.5115679,1.62325048 44.3457361,1.33 C44.1800382,1.03688337 43.9322945,0.839464627 43.6010325,0.737877629 Z" id="Path"></path>
                    <path d="M22.240325,10.3681644 C22.240325,10.0370363 22.1127725,9.74378585 21.8580688,9.48921606 L19.9471893,7.57847036 C19.6924857,7.32376673 19.399369,7.19608031 19.0682409,7.19608031 C18.7371128,7.19608031 18.4438623,7.32390057 18.1892925,7.57847036 L0.382256214,25.3855067 C0.127151052,25.6402103 0,25.933327 0,26.2644551 C0,26.5955832 0.127552581,26.8886998 0.382256214,27.1432696 L18.1891587,44.9503059 C18.4437285,45.2054111 18.7364436,45.3322945 19.0681071,45.3322945 C19.3997706,45.3322945 19.6924857,45.2050096 19.9470554,44.9503059 L21.857935,43.040631 C22.1126386,42.7860612 22.2401912,42.4928107 22.2401912,42.1612811 C22.2401912,41.8305545 22.1126386,41.5374379 21.857935,41.2828681 L6.84032505,26.2644551 L21.8580688,11.2471128 C22.113174,10.992543 22.240325,10.6992925 22.240325,10.3681644 Z" id="Path"></path>
                    <path d="M69.5468069,25.3851052 L51.739369,7.57806883 C51.4847992,7.32349904 51.1915488,7.19567878 50.860956,7.19567878 C50.5292925,7.19567878 50.2371128,7.32349904 49.9816061,7.57806883 L48.0715296,9.48868069 C47.8169598,9.74338432 47.6899426,10.0360994 47.6899426,10.3676291 C47.6899426,10.6991587 47.816826,10.9920076 48.0715296,11.2465774 L63.0895411,26.2643212 L48.0715296,41.2828681 C47.8169598,41.5374379 47.6899426,41.8306883 47.6899426,42.1612811 C47.6899426,42.4929446 47.816826,42.7860612 48.0715296,43.040631 L49.9816061,44.9503059 C50.2371128,45.2054111 50.5294264,45.3322945 50.860956,45.3322945 C51.1916826,45.3322945 51.4847992,45.2050096 51.739369,44.9503059 L69.5468069,27.1434034 C69.8015105,26.8888337 69.9287954,26.5951816 69.9287954,26.2640535 C69.9287954,25.9327916 69.8015105,25.639675 69.5468069,25.3851052 Z" id="Path"></path>
                </g>
            </g>
        </g>
    </g>
</svg>