
<svg width="50px" height="38px" viewBox="0 0 50 38" version="1.1" xmlns="http://www.w3.org/2000/svg" xmlns:xlink="http://www.w3.org/1999/xlink">
    <g id="Welcome" stroke="none" stroke-width="1" fill="none" fill-rule="evenodd">
        <g id="Desktop-1" transform="translate(-570.000000, -745.000000)" fill="#FFFFFF" fill-rule="nonzero">
            <g id="Btn-Code" transform="translate(550.000000, 720.000000)">
                <g id="code" transform="translate(20.000000, 25.000000)">
                    <path d="M31.1435946,0.527055449 L29.4508604,0.063001912 C29.2329828,-0.00965583174 29.0183556,0.0131931166 28.8096558,0.131357553 C28.6002868,0.249617591 28.458891,0.427151052 28.3862333,0.663671128 L18.2051625,35.9015296 C18.1325048,36.1381453 18.1552581,36.3612811 18.2735182,36.5702677 C18.3917782,36.7796367 18.5689293,36.9206501 18.8058317,36.9933078 L20.498088,37.4575526 C20.7164436,37.5307839 20.9303059,37.5078394 21.1395793,37.3894837 C21.3489484,37.2706501 21.4900574,37.0936902 21.5626195,36.8575526 L31.7439771,1.61912046 C31.8165392,1.38260038 31.7939771,1.15946463 31.6755258,0.95 C31.5571702,0.740630975 31.3802103,0.599617591 31.1435946,0.527055449 Z" id="Path"></path>
                    <path d="M15.8859465,7.40583174 C15.8859465,7.16931166 15.7948375,6.95984704 15.6129063,6.77801147 L14.2479924,5.41319312 C14.0660612,5.23126195 13.8566922,5.14005736 13.6201721,5.14005736 C13.383652,5.14005736 13.1741874,5.23135755 12.9923518,5.41319312 L0.273040153,18.1325048 C0.0908221797,18.3144359 0,18.523805 0,18.760325 C0,18.9968451 0.0911089866,19.2062141 0.273040153,19.3880497 L12.9922562,32.1073614 C13.1740918,32.2895793 13.383174,32.3802103 13.6200765,32.3802103 C13.856979,32.3802103 14.0660612,32.2892925 14.2478967,32.1073614 L15.6128107,30.7433078 C15.7947419,30.5614723 15.8858509,30.3520076 15.8858509,30.1152008 C15.8858509,29.8789675 15.7947419,29.6695985 15.6128107,29.4877629 L4.88594646,18.760325 L15.6129063,8.03365201 C15.7951243,7.85181644 15.8859465,7.64235182 15.8859465,7.40583174 Z" id="Path"></path>
                    <path d="M49.6762906,18.132218 L36.9566922,5.41290631 C36.7748566,5.23107075 36.565392,5.13977055 36.3292543,5.13977055 C36.0923518,5.13977055 35.883652,5.23107075 35.7011472,5.41290631 L34.3368069,6.77762906 C34.1549713,6.95956023 34.0642447,7.16864245 34.0642447,7.40544933 C34.0642447,7.64225621 34.1548757,7.85143403 34.3368069,8.0332696 L45.0639579,18.7602294 L34.3368069,29.4877629 C34.1549713,29.6695985 34.0642447,29.8790631 34.0642447,30.1152008 C34.0642447,30.3521033 34.1548757,30.5614723 34.3368069,30.7433078 L35.7011472,32.1073614 C35.883652,32.2895793 36.0924474,32.3802103 36.3292543,32.3802103 C36.5654876,32.3802103 36.7748566,32.2892925 36.9566922,32.1073614 L49.6762906,19.3881453 C49.8582218,19.2063098 49.9491396,18.9965583 49.9491396,18.7600382 C49.9491396,18.5234226 49.8582218,18.3140535 49.6762906,18.132218 Z" id="Path"></path>
                </g>
            </g>
        </g>
    </g>
</svg>