
<svg width="24px" height="30px" viewBox="0 0 29 50" version="1.1" xmlns="http://www.w3.org/2000/svg" xmlns:xlink="http://www.w3.org/1999/xlink">
    <g id="Welcome" stroke="none" stroke-width="1" fill="none" fill-rule="evenodd">
        <g id="Desktop-2" transform="translate(-226.000000, -883.000000)" fill="#FFFFFF" fill-rule="nonzero">
            <g id="Btn-Run" transform="translate(175.000000, 868.000000)">
                <g id="filter" transform="translate(51.000000, 15.000000)">
                    <path d="M0.0459558824,21.9154095 C0.0522946247,21.9482917 0.0614065923,21.9807778 0.0732916836,22.0124715 C0.0748763692,22.016037 0.0760649087,22.0196025 0.0772534483,22.0231682 C0.0895346856,22.0536733 0.103796957,22.0833862 0.120832252,22.1115143 C0.123209331,22.1154761 0.125586308,22.1194377 0.127963387,22.1233995 C0.145394929,22.1511314 0.164411156,22.1772788 0.185804361,22.2014452 C0.187389047,22.2034261 0.188577586,22.2054069 0.190162272,22.2073878 L10.5044847,33.7288444 L10.5044847,45.6203252 C10.5044847,45.8516892 10.6360136,46.0632448 10.8436074,46.1658531 C11.0512012,46.2684616 11.2992045,46.2442951 11.483028,46.1032581 L17.5682207,41.4423016 C17.7187658,41.3274119 17.8067159,41.1487385 17.8067159,40.9593687 L17.8067159,33.7288444 L28.1210383,22.207784 C28.1226229,22.2058031 28.1238115,22.2038223 28.1253961,22.2018414 C28.1467895,22.1772788 28.1662018,22.1511314 28.1832372,22.1237956 C28.1860103,22.1198339 28.1883874,22.1158722 28.1907645,22.1119105 C28.2074037,22.0833862 28.222062,22.0540695 28.2339472,22.0231682 C28.2355318,22.0196025 28.2367203,22.016037 28.2379088,22.0124715 C28.249794,21.9811739 28.2589059,21.9486878 28.2652446,21.9154095 C28.266037,21.9126363 28.266037,21.9094669 28.2668294,21.9062976 C28.2727719,21.8718306 28.2763375,21.8369675 28.2763375,21.8017083 L28.2763375,17.564259 C28.2763375,17.2283057 28.0037716,16.9557398 27.6678183,16.9557398 L24.9350279,16.9557398 C25.4492584,15.7010649 25.0582372,14.2570202 23.9814433,13.4329837 C22.9042533,12.6089472 21.4087063,12.6089472 20.3319124,13.4329837 C19.2547223,14.2570202 18.8640974,15.7010649 19.3779316,16.9557398 L0.643778499,16.9557398 C0.307429006,16.9557398 0.0352592292,17.2283057 0.0352592292,17.564259 L0.0352592292,21.8017083 C0.0352592292,21.8365714 0.0384286004,21.8718306 0.0447673428,21.9062976 C0.0451634888,21.9090708 0.0455597363,21.9122402 0.0459558824,21.9154095 L0.0459558824,21.9154095 Z M16.7445803,33.0902161 C16.6447452,33.2019365 16.5896774,33.346539 16.5896774,33.4958956 L16.5896774,40.6586745 L11.7215232,44.3874398 L11.7215232,33.4962919 C11.721127,33.346539 11.6660592,33.2023327 11.566224,33.0906124 L2.00541968,22.4102276 L26.3057809,22.4102276 L16.7445803,33.0902161 Z M20.3711334,15.8135776 C20.3707372,15.0251966 20.8873447,14.3295195 21.6424474,14.1025133 C22.397154,13.875111 23.2120785,14.1698625 23.6470746,14.8271108 C24.0820709,15.4847554 24.0345303,16.3499937 23.5302041,16.9557398 L20.7843402,16.9557398 C20.5165283,16.6356333 20.3699448,16.2311422 20.3711334,15.8135776 Z M27.059299,18.1727783 L27.059299,21.193189 L1.25229777,21.193189 L1.25229777,18.1727783 L27.059299,18.1727783 Z" id="Shape"></path>
                    <path d="M14.1556003,6.10856684 C15.370658,6.10856684 16.4656757,5.37683824 16.9307809,4.25448469 C17.39549,3.13213103 17.1383747,1.84021613 16.2794752,0.981316531 C15.3183633,0.0198085193 13.8311359,-0.175900101 12.6537145,0.50393002 C11.4766892,1.183364 10.9026369,2.5691715 11.2544371,3.88247972 C11.6062373,5.19539168 12.7963362,6.10856684 14.1556003,6.10856684 Z M12.8926059,1.84180081 C13.591056,1.15048174 14.7169752,1.15365112 15.412256,1.8485357 C16.1071406,2.54342039 16.1103099,3.66933955 15.4189909,4.3681858 C14.968544,4.82338682 14.3085224,5.00285243 13.6897027,4.83804513 C13.0704868,4.67363398 12.5871577,4.18990872 12.4223504,3.57108905 C12.2575431,2.95187312 12.4370087,2.29185152 12.8926059,1.84140467 L12.8926059,1.84180081 Z" id="Shape"></path>
                    <path d="M3.82107312,14.0502187 C5.25402515,14.0502187 6.48730669,13.0380008 6.76700365,11.6327808 C7.04670071,10.2271647 6.2943712,8.81996389 4.97036633,8.27166268 C3.64675771,7.72336146 2.11951704,8.1864858 1.32360862,9.37777323 C0.527304158,10.5694568 0.683791886,12.1573118 1.69719828,13.1707182 C2.25896937,13.7356586 3.02397627,14.0525957 3.82107312,14.0502187 Z M2.55768256,9.78345274 C3.25534037,9.08579493 4.38640974,9.08579493 5.08406755,9.78345274 C5.78172535,10.4811105 5.7821216,11.6121799 5.08446369,12.3102339 C4.38561744,13.0011568 3.25969828,12.9979874 2.56481359,12.3031028 C1.86953286,11.6082182 1.86675963,10.4822991 2.55768256,9.78345274 Z" id="Shape"></path>
                    <path d="M20.7233297,10.1352529 C20.9610326,10.3729558 21.3461112,10.3729558 21.583814,10.1352529 L24.4524911,7.26697201 C24.6901939,7.02926917 24.6901939,6.64379432 24.4524911,6.40609148 L21.583814,3.53781055 C21.3461112,3.30010771 20.9610326,3.30010771 20.7233297,3.53781055 L17.8550488,6.40609148 C17.6173459,6.64379432 17.6173459,7.02926917 17.8550488,7.26697201 L20.7233297,10.1352529 Z M21.1535719,4.82853702 L23.1617647,6.83672982 L21.1535719,8.84452647 L19.1453791,6.83633367 L21.1535719,4.82853702 Z" id="Shape"></path>
                    <path d="M16.0580153,43.192983 L13.1897344,46.0612639 C12.9520315,46.2989667 12.9520315,46.6844416 13.1897344,46.9221444 L16.0580153,49.7904254 C16.2957182,50.0281282 16.6807968,50.0281282 16.9184996,49.7904254 L19.7871767,46.9221444 C20.0248795,46.6844416 20.0248795,46.2989667 19.7871767,46.0612639 L16.9184996,43.192983 C16.6807968,42.9552801 16.2957182,42.9552801 16.0580153,43.192983 Z M16.4882575,48.4996989 L14.4800647,46.4915061 L16.4882575,44.4833133 L18.4964503,46.4915061 L16.4882575,48.4996989 Z" id="Shape"></path>
                    <path d="M11.4984787,15.421368 C11.5151178,15.650355 11.6593243,15.8504215 11.871276,15.9387677 C12.0836238,16.027114 12.3272693,15.9886854 12.5015847,15.8389326 L16.8563007,12.1042247 C17.0306161,11.954472 17.1058886,11.7195424 17.0508209,11.4964979 C16.995753,11.2738495 16.8202491,11.1007226 16.5964123,11.0492203 L11.8910846,9.97004949 C11.7029031,9.92686673 11.5052136,9.9751997 11.3586302,10.1011822 C11.2120468,10.2267686 11.134001,10.4145538 11.147867,10.6070931 L11.4984787,15.421368 Z M15.1484058,11.9651686 L12.624794,14.1298491 L12.4219543,11.339614 L15.1484058,11.9651686 Z" id="Shape"></path>
                </g>
            </g>
        </g>
    </g>
</svg>