
<svg width="48px" height="47px" viewBox="0 0 48 47" version="1.1" xmlns="http://www.w3.org/2000/svg" xmlns:xlink="http://www.w3.org/1999/xlink">
    <g id="Welcome" stroke="none" stroke-width="1" fill="none" fill-rule="evenodd">
        <g id="Desktop-1" transform="translate(-403.000000, -843.000000)" fill="#FFFFFF" fill-rule="nonzero">
            <g id="Btn-Choose" transform="translate(175.000000, 830.000000)">
                <g id="upload" transform="translate(228.000000, 13.000000)">
                    <path d="M38.9815195,12.0944559 C38.4689938,8.92197125 36.9609856,6.02669405 34.6546201,3.82956879 C32.0919918,1.38603696 28.7605749,0.0410677618 25.2911704,0.0410677618 C22.6102669,0.0410677618 19.9983573,0.841889117 17.7609856,2.35112936 C15.898152,3.6036961 14.3507187,5.29774127 13.2566735,7.28952772 C12.7835729,7.19712526 12.2907598,7.14579055 11.7979466,7.14579055 C7.60903491,7.14579055 4.19876797,10.698152 4.19876797,15.0616016 C4.19876797,15.6262834 4.25790554,16.1704312 4.35646817,16.7043121 C1.64599589,18.7577002 0,22.063655 0,25.5852156 C0,28.4291581 1.01519507,31.1909651 2.86817248,33.3778234 C4.77043121,35.6160164 7.28377823,36.9404517 9.96468172,37.0944559 C9.99425051,37.0944559 10.013963,37.0944559 10.0435318,37.0944559 L18.5199179,37.0944559 C19.2591376,37.0944559 19.8505133,36.4784394 19.8505133,35.7084189 C19.8505133,34.9383984 19.2591376,34.3223819 18.5199179,34.3223819 L10.0829569,34.3223819 C6.05174538,34.0657084 2.66119097,30.0718686 2.66119097,25.5749487 C2.66119097,22.6694045 4.15934292,19.9589322 6.57412731,18.4907598 C7.13593429,18.1519507 7.3724846,17.4435318 7.15564682,16.8069815 C6.95852156,16.2525667 6.85995893,15.6673511 6.85995893,15.0410678 C6.85995893,12.2073922 9.07761807,9.8973306 11.7979466,9.8973306 C12.3794661,9.8973306 12.9511294,10 13.4833676,10.2053388 C14.1338809,10.4517454 14.8533881,10.1437372 15.149076,9.49691992 C16.9921971,5.42094456 20.9741273,2.7926078 25.3010267,2.7926078 C31.1162218,2.7926078 35.9162218,7.33059548 36.4681725,13.3470226 C36.5273101,13.973306 36.9806982,14.476386 37.5720739,14.5790554 C41.9581109,15.3593429 45.2698152,19.5790554 45.2698152,24.3942505 C45.2698152,29.4969199 41.4160164,33.9322382 36.6652977,34.312115 L29.401232,34.312115 C28.6620123,34.312115 28.0706366,34.9281314 28.0706366,35.698152 C28.0706366,36.4681725 28.6620123,37.0841889 29.401232,37.0841889 L36.7145791,37.0841889 C36.7441478,37.0841889 36.7737166,37.0841889 36.8131417,37.0841889 C39.8193018,36.8583162 42.6283368,35.4209446 44.7178645,33.0184805 C46.7975359,30.6365503 47.9310062,27.5770021 47.9310062,24.3942505 C47.9211499,18.6344969 44.1462012,13.5112936 38.9815195,12.0944559 Z" id="Path"></path>
                    <path d="M31.9540041,26.899384 C32.476386,26.3552361 32.476386,25.4825462 31.9540041,24.9383984 L24.9067762,17.5975359 C24.6603696,17.3408624 24.3154004,17.1868583 23.9704312,17.1868583 C23.625462,17.1868583 23.2804928,17.3305955 23.0340862,17.5975359 L15.9868583,24.9383984 C15.4644764,25.4825462 15.4644764,26.3552361 15.9868583,26.899384 C16.2431211,27.1663244 16.5880903,27.3100616 16.9232033,27.3100616 C17.2583162,27.3100616 17.6032854,27.1765914 17.8595483,26.899384 L22.6398357,21.9199179 L22.6398357,44.8049281 C22.6398357,45.5749487 23.2312115,46.1909651 23.9704312,46.1909651 C24.7096509,46.1909651 25.3010267,45.5749487 25.3010267,44.8049281 L25.3010267,21.9199179 L30.0813142,26.899384 C30.5938398,27.4435318 31.4316222,27.4435318 31.9540041,26.899384 Z" id="Path"></path>
                </g>
            </g>
        </g>
    </g>
</svg>